<svg xmlns="http://www.w3.org/2000/svg" width="61.206" height="61.207" viewBox="0 0 61.206 61.207">
  <defs>
    <style>
      .cls-1 {
        fill: #162e5e;
      }
    </style>
  </defs>
  <g id="files" transform="translate(0 0.001)">
    <g id="Group_41" data-name="Group 41" transform="translate(0 0)">
      <g id="Group_40" data-name="Group 40">
        <path id="Path_13" data-name="Path 13" class="cls-1" d="M297.563,256h-7.651A1.913,1.913,0,0,0,288,257.913v15.3a1.913,1.913,0,0,0,1.913,1.913h7.651a3.825,3.825,0,0,0,3.825-3.825V259.825A3.825,3.825,0,0,0,297.563,256Zm0,15.3h-5.738V259.825h5.738Z" transform="translate(-253.571 -225.397)"/>
        <path id="Path_14" data-name="Path 14" class="cls-1" d="M427.476,259.825V256h-9.563A1.913,1.913,0,0,0,416,257.913v17.214h3.825v-7.651h7.651v-3.825h-7.651v-3.825Z" transform="translate(-366.27 -225.397)"/>
        <path id="Path_15" data-name="Path 15" class="cls-1" d="M3.825,55.468V5.738A1.913,1.913,0,0,1,5.738,3.825h28.69v7.651A3.825,3.825,0,0,0,38.254,15.3H45.9v5.738H49.73V13.389a1.912,1.912,0,0,0-.555-1.358L37.7.554A1.913,1.913,0,0,0,36.341,0H5.738A5.738,5.738,0,0,0,0,5.738v49.73a5.738,5.738,0,0,0,5.738,5.738H19.127V57.381H5.738A1.913,1.913,0,0,1,3.825,55.468Z" transform="translate(0 0)"/>
        <path id="Path_16" data-name="Path 16" class="cls-1" d="M169.563,256h-7.651A1.913,1.913,0,0,0,160,257.913v17.214h3.825v-5.738h5.738a3.825,3.825,0,0,0,3.825-3.825v-5.738A3.825,3.825,0,0,0,169.563,256Zm0,9.563h-5.738v-5.738h5.738Z" transform="translate(-140.873 -225.397)"/>
      </g>
    </g>
  </g>
</svg>
